<?xml version="1.0" encoding="utf-8"?>
<!-- Generator: Adobe Illustrator 18.0.0, SVG Export Plug-In . SVG Version: 6.00 Build 0)  -->
<!DOCTYPE svg PUBLIC "-//W3C//DTD SVG 1.1//EN" "http://www.w3.org/Graphics/SVG/1.1/DTD/svg11.dtd">
<svg version="1.1" id="Layer_1" xmlns="http://www.w3.org/2000/svg" xmlns:xlink="http://www.w3.org/1999/xlink" x="0px" y="0px"
	 width="1000px" height="209.1px" viewBox="0 0 1000 209.1" style="enable-background:new 0 0 1000 209.1;" xml:space="preserve">
<style type="text/css">
	.st0{display:none;}
	.st1{display:none;fill:#494949;}
	.st2{display:inline;fill:#323436;}
	.st3{display:none;fill:#545656;}
	.st4{fill:#323436;}
</style>
<path class="st0" d="M6898-19.1c0,4.1,0.1,7.9,0,11.6c0,0.8-0.6,1.7-1,2.5c-5.4,9.7-10.8,19.3-16.2,29c-0.4,0.8-0.8,1.6-1.4,2.7
	c6.4,0,12.3,0,18.5,0c0,4.5,0,8.8,0,13.2c-23.9,0-47.7,0-72,0c0.4-4.3-0.9-8.6,1.6-12.9c5.9-9.9,11.5-20.1,17.2-30.2
	c0.4-0.8,0.8-1.6,1.4-2.7c-6.9,0-13.4,0-20.1,0c0-4.5,0-8.8,0-13.3C6849.9-19.1,6873.8-19.1,6898-19.1z M6844.4,26.8
	c5.5,0,10.6-0.1,15.8,0c1.7,0,2.7-0.5,3.5-2c5.3-9.5,10.7-19,16-28.4c0.3-0.6,0.6-1.3,1.1-2.2c-5.6,0-10.8,0.1-16,0
	c-1.8,0-2.7,0.6-3.5,2.1c-5.2,9.5-10.5,18.9-15.8,28.3C6845.2,25.1,6844.9,25.7,6844.4,26.8z"/>
<path class="st0" d="M6986,425.9c-4.1,0-7.9-0.7-11.3-2.2c-3.4-1.4-6.3-3.4-8.8-5.9c-2.4-2.5-4.4-5.4-5.7-8.7
	c-1.4-3.3-2.1-6.9-2.1-10.6v-0.1c0-3.7,0.7-7.3,2.1-10.6c1.4-3.3,3.3-6.3,5.8-8.8s5.5-4.5,8.8-6c3.4-1.5,7.2-2.2,11.3-2.2
	c4.1,0,7.9,0.7,11.3,2.2c3.4,1.4,6.3,3.4,8.8,5.9c2.4,2.5,4.4,5.4,5.7,8.7c1.4,3.3,2.1,6.9,2.1,10.6v0.1c0,3.7-0.7,7.3-2.1,10.6
	c-1.4,3.3-3.3,6.3-5.8,8.8s-5.5,4.5-8.8,6C6993.9,425.1,6990.1,425.9,6986,425.9z M6986,381c-2.4,0-4.6,0.5-6.6,1.3
	c-2,0.9-3.7,2.1-5.1,3.7c-1.4,1.5-2.5,3.4-3.4,5.5c-0.8,2.1-1.2,4.3-1.2,6.7v0.1c0,2.4,0.4,4.6,1.2,6.7c0.8,2.1,1.9,3.9,3.4,5.5
	c1.4,1.5,3.2,2.8,5.2,3.7c2,0.9,4.2,1.4,6.6,1.4s4.6-0.5,6.6-1.3c2-0.9,3.7-2.1,5.1-3.7c1.4-1.5,2.5-3.4,3.4-5.5
	c0.8-2.1,1.2-4.3,1.2-6.7v-0.1c0-2.4-0.4-4.6-1.2-6.7c-0.8-2.1-1.9-3.9-3.4-5.5c-1.4-1.5-3.2-2.8-5.2-3.7
	C6990.6,381.4,6988.4,381,6986,381z"/>
<path class="st0" d="M6919.3,40V26.6c-0.5,0.2-1,0.3-1.7,0.2c-1.8,0-3.5-0.1-5.3-0.1c-3.4,0-6.8,0-10.4,0c0.5-1,0.8-1.7,1.1-2.3
	c5.3-9.4,10.6-18.8,15.8-28.3c0.2-0.3,0.3-0.5,0.5-0.8V-19c-12,0-24,0-36,0c0,4.5,0,8.8,0,13.3c6.7,0,13.2,0,20.1,0
	c-0.6,1.1-1,1.9-1.4,2.7c-5.7,10.1-11.2,20.2-17.2,30.2c-2.6,4.3-1.3,8.6-1.6,12.9C6895.3,40,6907.4,40,6919.3,40z"/>
<path class="st0" d="M6873.6,40V26.6c-0.5,0.2-1,0.3-1.7,0.2c-5.1-0.1-10.3,0-15.8,0c0.5-1,0.8-1.7,1.1-2.3
	c5.3-9.4,10.6-18.8,15.8-28.3c0.2-0.3,0.3-0.5,0.5-0.8V-19c-12,0-24,0-36,0c0,4.5,0,8.8,0,13.3c6.7,0,13.2,0,20.1,0
	c-0.6,1.1-1,1.9-1.4,2.7c-5.7,10.1-11.2,20.2-17.2,30.2c-2.6,4.3-1.3,8.6-1.6,12.9C6849.6,40,6861.7,40,6873.6,40z"/>
<path class="st1" d="M7235.1,13.8c10.2,4.1,20.2,8.1,30.6,12.2c-29.6,74.2-59.1,148.2-88.8,222.9c-10-4-20.1-8-30.6-12.2
	C7175.8,162.7,7205.4,88.5,7235.1,13.8z"/>
<rect x="7155.5" y="81.3" class="st1" width="88.6" height="29.8"/>
<rect x="7155.6" y="183.4" class="st1" width="88.5" height="29.8"/>
<path class="st0" d="M6462.5,459.5h8.5v77.8h-8.5V459.5z"/>
<path class="st0" d="M6485.7,481.4h8.5v55.9h-8.5V481.4z M6485.6,465.2h8.5v8.5h-8.5V465.2z"/>
<path class="st0" d="M6514.8,545.7c2.2,1.3,8.8,4.6,16.9,4.6c10.6,0,19.7-4.4,19.7-16.9v-4.9c-1.3,2-7.1,10.2-19.4,10.2
	c-16,0-27-12.2-27-29.3c0-17.2,11.1-29.5,26.9-29.5c11.6,0,18,7.4,19.8,10.4v-9h8.2v48.2c0,21.2-11.9,28.4-28.1,28.4
	c-7.3,0-15.2-2.6-20-5.6L6514.8,545.7z M6532.6,487.7c-10.9,0-18.9,8.9-18.9,21.7c0,13,8.4,21.5,19.1,21.5
	c11.5,0,18.9-9.5,18.9-21.5C6551.7,495.9,6543.2,487.7,6532.6,487.7z"/>
<path class="st0" d="M6618.9,502.4v35h-8.5V502c0-8.9-5.7-14.3-13.2-14.3c-8.6,0-14.6,6.3-14.6,15.6v34h-8.5v-77.8l8.5,4v25.9
	c2.7-5.1,8.9-9.5,16.6-9.5C6612.2,480,6618.9,489.7,6618.9,502.4z"/>
<path class="st0" d="M6628.7,469.7h8.5v11.7h12.3v7.2h-12.3v28.8c0,10.4,3,12.9,10.3,12.9c1.1,0,2.4-0.1,2.4-0.1v7.5
	c0,0-2.3,0.3-5.2,0.3c-11.2,0-16-7.3-16-19.9v-29.6v-7.2L6628.7,469.7L6628.7,469.7z"/>
<g class="st0">
	<path class="st2" d="M1523.9,45.2h9.2v84.4h-9.2V45.2z"/>
	<path class="st2" d="M1549,68.9h9.2v60.7h-9.2V68.9z M1549,51.3h9.2v9.2h-9.2V51.3z"/>
	<path class="st2" d="M1580.7,138.7c2.3,1.4,9.6,5,18.3,5c11.6,0,21.4-4.8,21.4-18.3V120c-1.4,2.2-7.7,11.1-21,11.1
		c-17.4,0-29.3-13.2-29.3-31.8c0-18.7,12-32,29.2-32c12.6,0,19.5,8.1,21.5,11.3v-9.8h8.9v52.3c0,23-13,30.8-30.5,30.8
		c-7.9,0-16.5-2.8-21.7-6.1L1580.7,138.7z M1599.9,75.8c-11.8,0-20.6,9.7-20.6,23.6c0,14.1,9.1,23.4,20.8,23.4
		c12.5,0,20.6-10.3,20.6-23.4C1620.7,84.7,1611.5,75.8,1599.9,75.8z"/>
	<path class="st2" d="M1693.7,91.7v38h-9.2V91.3c0-9.7-6.2-15.5-14.4-15.5c-9.3,0-15.9,6.9-15.9,16.9v36.9h-9.2V45.2l9.2,4.3v28.2
		c2.9-5.5,9.7-10.3,18-10.3C1686.3,67.4,1693.7,77.9,1693.7,91.7z"/>
	<path class="st2" d="M1704.3,56.2h9.2v12.7h13.3v7.8h-13.3V108c0,11.3,3.3,14,11.2,14c1.2,0,2.6-0.1,2.6-0.1v8.2
		c0,0-2.5,0.4-5.6,0.4c-12.1,0-17.4-7.9-17.4-21.6V76.7v-7.8L1704.3,56.2L1704.3,56.2z"/>
	<path class="st2" d="M1738,45.2l9.2,4.3v29.2c1.9-3.2,8.8-11.3,21.5-11.3c17.2,0,29,13.3,29,32c0,18.6-12.4,31.8-29.7,31.8
		c-13.2,0-19.6-8.9-21.1-11.1v9.6h-8.9V45.2z M1767.5,122.9c11.7,0,20.8-9.2,20.8-23.4c0-13.9-8.6-23.7-20.6-23.7
		c-11.4,0-20.8,8.6-20.8,23.7C1746.9,112.2,1754.8,122.9,1767.5,122.9z"/>
	<path class="st2" d="M1835.7,132.2c-18.1,0-31.7-13.8-31.7-32.2c0-18.2,13.6-31.9,31.7-31.9c9.2,0,17.3,3.6,22.6,10v-9.3h9.1v62.4
		h-9.1v-9.3C1852.6,128.6,1844.6,132.2,1835.7,132.2z M1835.7,76.9c-13.1,0-22.6,9.7-22.6,23.1c0,13.5,9.5,23.2,22.6,23.2
		c15.9,0,23.1-12,23.1-23.2S1851.6,76.9,1835.7,76.9z"/>
	<path class="st2" d="M1929.1,91.7v38h-9.2V91.3c0-9.7-6.1-15.5-14.4-15.5c-9.3,0-15.8,6.9-15.8,16.9v36.9h-9.2V68.9h9.1v8.8
		c2.9-5.5,9.7-10.3,18.1-10.3C1921.8,67.4,1929.1,77.9,1929.1,91.7z"/>
	<path class="st2" d="M1944.5,45.2l9.2,4.3V95l24.8-26l8,3.9l-0.2,0.2l-22.3,23l27.7,33.5h-11.9l-26-32.3v32.3h-9.2L1944.5,45.2
		L1944.5,45.2z"/>
</g>
<rect x="6591" y="481.3" class="st3" width="11.2" height="7.2"/>
<rect x="6622" y="481.3" class="st3" width="11.2" height="7.2"/>
<g>
	<path class="st4" d="M493.4,6l18.3,8.5v58c3.7-6.3,17.4-22.5,42.6-22.5c34.1,0,57.5,26.4,57.5,63.5c0,36.9-24.6,63-58.9,63
		c-26.2,0-38.9-17.6-41.9-22v19h-17.6L493.4,6L493.4,6z M551.8,160.1c23.2,0,41.3-18.3,41.3-46.4c0-27.6-17.2-47-40.8-47
		c-22.7,0-41.3,17.2-41.3,47C511,139,526.8,160.1,551.8,160.1z"/>
	<path class="st4" d="M693.6,178.6c-35.9,0-62.9-27.5-62.9-63.9c0-36.1,27-63.4,62.9-63.4c18.2,0,34.4,7.2,44.9,19.9V52.8h18v123.9
		h-18v-18.5C727.2,171.4,711.3,178.6,693.6,178.6z M693.6,68.9c-26,0-44.9,19.3-44.9,45.9c0,26.7,18.9,46.1,44.9,46.1
		c31.5,0,45.9-23.8,45.9-46S725.1,68.9,693.6,68.9z"/>
	<path class="st4" d="M879.6,98.2v75.3h-18.3v-76c0-19.2-12.1-30.8-28.5-30.8c-18.5,0-31.3,13.7-31.3,33.6v73.2h-18.3V53h18.1v17.4
		c5.8-10.9,19.2-20.4,35.9-20.4C865.3,50,879.6,70.9,879.6,98.2z"/>
	<path class="st4" d="M906.4,6l18.3,8.6v90.1L973.8,53l15.8,7.7l-0.3,0.3l-44.2,46l54.9,66.5h-23.6l-51.7-64.2v64.2h-18.3V6z"/>
	<path class="st4" d="M95.6,77.8l-32.3,96.1H43L2.2,52.9h20l31.6,99.6c0,0,0.2-0.5,32.6-99.6h18.1c32.1,99.1,32.3,99.6,32.3,99.6
		l31.9-99.6h20l-41,121h-20.2L95.6,77.8z"/>
	<path class="st4" d="M352.3,27.5h18.4v25.4h26.5v15.6h-26.5v62.4c0,22.6,6.5,27.9,22.3,27.9c2.3,0,5.1-0.2,5.1-0.2v16.3
		c0,0-4.9,0.7-11.2,0.7c-24.2,0-34.7-15.8-34.7-43v-64V52.9V27.5H352.3z"/>
	<path class="st4" d="M424.8,27.5h18.4v25.4h26.5v15.6h-26.5v62.4c0,22.6,6.5,27.9,22.3,27.9c2.3,0,5.1-0.2,5.1-0.2v16.3
		c0,0-4.9,0.7-11.2,0.7c-24.2,0-34.7-15.8-34.7-43v-64V52.9V27.5H424.8z"/>
	<path class="st4" d="M262.6,177.6c-35.9,0-62.9-27.5-62.9-63.9c0-36.1,27-63.4,62.9-63.4c18.2,0,34.4,7.2,44.9,19.9V51.8h18v123.9
		h-18v-18.5C296.2,170.4,280.4,177.6,262.6,177.6z M262.6,67.9c-26,0-44.9,19.3-44.9,45.9c0,26.7,18.9,46.1,44.9,46.1
		c31.5,0,45.9-23.8,45.9-46S294.1,67.9,262.6,67.9z"/>
</g>
</svg>
